<?xml version="1.0"?>
<svg xmlns="http://www.w3.org/2000/svg" xmlns:xlink="http://www.w3.org/1999/xlink" version="1.1" id="Capa_1" x="0px" y="0px" viewBox="0 0 489.841 489.841" style="enable-background:new 0 0 489.841 489.841;" xml:space="preserve" width="512px" height="512px"><g><path id="XMLID_175_" d="M403.886,427.092c31.805-31.675,51.156-72.843,51.156-117.982c0-39.184-14.643-75.351-39.282-104.954  c2.02-6.265,3.149-12.751,3.149-19.456c0-37.186-32.559-68.257-83.059-85.193l28.483-65.848c5.268-12.211-0.35-26.389-12.568-31.673  c-12.2-5.284-26.376,0.345-31.663,12.554l-32.024,74.065c-13.741-1.849-28.121-2.939-43.145-2.939  c-99.2,0-173.995,42.572-173.995,99.034c0,6.705,1.129,13.191,3.15,19.456c-24.64,29.604-39.289,65.771-39.289,104.954  c0,45.14,19.371,86.317,51.175,117.988l-17.909,24.225c-7.902,10.695-5.643,25.775,5.053,33.689  c4.297,3.184,9.314,4.721,14.299,4.721c7.374,0,14.668-3.379,19.39-9.772l17.154-23.22c34.224,20.78,75.895,33.1,120.973,33.1  c45.072,0,86.731-12.32,120.935-33.09l17.155,23.21c4.74,6.393,12.016,9.772,19.401,9.772c4.974,0,9.99-1.537,14.306-4.715  c10.696-7.911,12.968-22.99,5.065-33.695L403.886,427.092z M244.915,236c-78.418,0-125.798-29.477-125.798-51.3  c0-20.734,49.014-50.853,125.816-50.853c8.044,0,15.73,0.399,23.128,1.01l-12.19,28.209c-3.218,7.447-2.473,16.014,1.983,22.794  c4.456,6.78,12.024,10.862,20.138,10.862c9.611,0,18.303-5.711,22.118-14.532l16.543-38.252  c34.191,10.619,54.079,27.573,54.079,40.762C370.731,207.889,320.981,236,244.915,236z" data-original="#000000" class="active-path" data-old_color="#000000" fill="#513367"/></g> </svg>
