<?xml version="1.0" standalone="no"?>
<!DOCTYPE svg PUBLIC "-//W3C//DTD SVG 20010904//EN"
 "http://www.w3.org/TR/2001/REC-SVG-20010904/DTD/svg10.dtd">
<svg version="1.0" xmlns="http://www.w3.org/2000/svg"
 width="620.000000pt" height="180.000000pt" viewBox="0 0 620.000000 180.000000"
 preserveAspectRatio="xMidYMid meet">

<g transform="translate(0.000000,180.000000) scale(0.100000,-0.100000)"
fill="#000000" stroke="none">
<path d="M3762 1581 c-33 -16 -47 -30 -63 -66 -19 -43 -20 -63 -17 -278 4
-270 8 -285 85 -319 36 -16 58 -19 97 -14 61 7 94 29 121 82 18 36 20 59 20
264 0 205 -2 228 -20 264 -27 54 -61 76 -126 82 -41 4 -64 0 -97 -15z m163
-43 c37 -33 45 -79 45 -288 0 -102 -5 -203 -10 -225 -13 -59 -49 -85 -116 -85
-118 0 -124 15 -124 310 0 295 6 309 122 310 45 0 62 -5 83 -22z"/>
<path d="M4736 1590 c-35 -11 -63 -36 -85 -75 -13 -25 -16 -65 -16 -260 0
-210 2 -233 20 -269 30 -59 65 -80 133 -81 74 0 116 19 144 64 22 35 23 44 23
281 0 236 -1 246 -22 281 -12 19 -35 41 -50 48 -36 17 -111 22 -147 11z m136
-41 c41 -22 48 -65 48 -298 0 -121 -4 -231 -9 -244 -19 -48 -50 -67 -112 -67
-68 0 -103 23 -119 78 -13 48 -13 416 0 464 15 54 51 78 117 78 30 0 63 -5 75
-11z"/>
<path d="M5573 1590 c-50 -16 -83 -63 -83 -120 0 -27 5 -61 10 -75 6 -15 60
-78 121 -141 122 -127 144 -165 134 -230 -9 -60 -41 -84 -112 -84 -66 0 -96
25 -115 94 -14 52 -38 62 -38 16 0 -41 32 -103 64 -124 72 -46 193 -20 221 48
19 45 19 107 0 153 -9 20 -62 84 -119 142 -56 58 -110 117 -119 131 -20 28
-22 78 -6 114 20 44 111 64 164 36 26 -14 55 -70 55 -105 0 -16 6 -25 15 -25
39 0 4 116 -45 152 -30 22 -104 31 -147 18z"/>
<path d="M270 1438 c0 -84 -3 -237 -7 -340 l-6 -188 36 0 37 0 0 158 c0 146 9
326 16 319 2 -1 26 -102 54 -222 63 -274 57 -255 83 -255 21 0 26 16 76 233
30 127 58 239 62 247 5 8 9 -74 9 -186 0 -111 3 -222 6 -248 6 -43 9 -46 35
-46 l29 0 0 198 c0 108 -3 261 -7 340 l-6 143 -41 -3 -40 -3 -60 -273 c-32
-150 -62 -269 -66 -265 -4 4 -26 98 -50 208 -23 110 -49 230 -57 268 l-15 67
-44 0 -44 0 0 -152z"/>
<path d="M820 1250 l0 -340 125 0 125 0 0 35 0 35 -85 0 -85 0 0 120 0 120 70
0 70 0 0 35 0 35 -70 0 -70 0 0 115 0 115 85 0 85 0 0 35 0 35 -125 0 -125 0
0 -340z"/>
<path d="M1160 1251 l0 -341 40 0 40 0 0 160 0 160 43 0 44 0 44 -160 43 -160
42 0 42 0 -19 68 c-10 37 -32 112 -48 167 l-29 100 24 19 c40 30 57 74 57 147
0 131 -48 170 -215 177 l-108 5 0 -342z m215 244 c21 -20 25 -34 25 -85 0 -51
-4 -65 -25 -85 -20 -21 -34 -25 -80 -25 l-55 0 0 110 0 110 55 0 c46 0 60 -4
80 -25z"/>
<path d="M1600 1250 l0 -340 131 0 130 0 -3 33 -3 32 -87 3 -88 3 0 304 0 305
-40 0 -40 0 0 -340z"/>
<path d="M1930 1250 l0 -340 45 0 45 0 0 340 0 340 -45 0 -45 0 0 -340z"/>
<path d="M2140 1251 l0 -341 35 0 35 0 2 232 3 233 99 -233 c89 -211 100 -232
122 -232 l24 0 0 340 0 340 -35 0 -35 0 0 -222 c0 -122 -3 -218 -7 -214 -5 4
-49 102 -98 219 -84 197 -92 212 -118 215 l-27 3 0 -340z"/>
<path d="M2542 1488 c3 -95 5 -103 23 -103 16 0 21 11 32 75 6 41 14 87 17
103 5 26 4 27 -35 27 l-40 0 3 -102z"/>
<path d="M2743 1575 c-48 -21 -73 -68 -73 -140 0 -78 21 -111 128 -205 45 -40
91 -87 102 -105 47 -75 7 -163 -68 -151 -44 7 -69 34 -83 92 -12 45 -17 48
-56 38 -30 -8 -31 -52 -2 -110 28 -59 78 -89 149 -89 107 0 168 70 157 180 -8
74 -30 107 -147 215 -106 98 -125 133 -99 181 17 33 28 39 76 39 33 0 46 -5
62 -26 12 -15 21 -36 21 -48 0 -36 13 -46 45 -37 26 7 30 12 27 40 -4 52 -37
106 -76 125 -41 20 -119 20 -163 1z"/>
<path d="M3290 1251 c0 -294 2 -341 15 -341 12 0 15 27 17 163 l3 162 91 5
c102 6 132 19 158 73 20 43 21 155 2 200 -23 57 -57 71 -178 75 l-108 4 0
-341z m205 295 c18 -8 39 -25 46 -37 17 -32 16 -148 -2 -184 -20 -42 -53 -55
-141 -55 l-78 0 0 138 c0 76 3 142 7 145 12 13 133 7 168 -7z"/>
<path d="M4080 1575 c0 -11 16 -15 68 -17 l67 -3 3 -322 c2 -277 4 -323 17
-323 13 0 15 46 17 322 l3 323 68 3 c51 2 67 6 67 17 0 13 -26 15 -155 15
-129 0 -155 -2 -155 -15z"/>
<path d="M4480 1250 c0 -296 2 -340 15 -340 13 0 15 44 15 340 0 296 -2 340
-15 340 -13 0 -15 -44 -15 -340z"/>
<path d="M5080 1250 c0 -296 2 -340 15 -340 13 0 15 39 15 287 0 170 4 283 9
278 7 -8 132 -311 228 -552 3 -7 11 -13 19 -13 12 0 14 56 14 340 0 296 -2
340 -15 340 -13 0 -15 -39 -15 -287 0 -176 -4 -283 -9 -277 -5 5 -60 134 -122
287 -70 173 -117 277 -125 277 -12 0 -14 -59 -14 -340z"/>
<path d="M1332 694 c-12 -8 -22 -21 -22 -29 0 -8 -10 -21 -22 -29 -17 -12 -18
-16 -7 -16 15 0 15 -9 -2 -92 -23 -113 -32 -136 -61 -148 l-23 -9 23 0 c33 -1
59 30 70 85 6 27 15 75 22 107 9 46 15 57 31 57 10 0 19 5 19 10 0 6 -7 10
-15 10 -19 0 -19 21 0 46 15 19 15 19 34 -4 11 -12 22 -18 26 -13 3 6 12 8 19
5 19 -7 31 15 17 29 -9 9 -14 8 -21 -3 -7 -12 -12 -12 -22 -2 -16 16 -39 15
-66 -4z"/>
<path d="M2483 695 c-3 -9 -3 -18 0 -21 9 -9 27 6 27 22 0 19 -19 18 -27 -1z"/>
<path d="M3380 690 c0 -13 5 -20 13 -17 6 2 12 10 12 17 0 7 -6 15 -12 18 -8
2 -13 -5 -13 -18z"/>
<path d="M4125 669 c-16 -10 -34 -21 -40 -23 -5 -2 -7 -7 -3 -11 5 -5 17 0 28
10 11 10 22 16 25 13 7 -6 -32 -179 -42 -188 -4 -5 -17 -10 -28 -13 -11 -3 9
-5 45 -5 48 -1 59 2 43 8 -28 11 -28 5 -3 116 28 128 28 127 -25 93z"/>
<path d="M4290 662 c-63 -63 -65 -193 -3 -208 52 -13 101 50 110 141 5 45 2
56 -16 74 -29 29 -57 26 -91 -7z m78 -57 c3 -81 -20 -130 -63 -130 l-30 0 0
70 c0 87 21 128 63 123 26 -3 27 -6 30 -63z"/>
<path d="M4473 675 c-13 -9 -23 -23 -23 -31 0 -20 5 -18 34 11 21 21 29 24 46
15 40 -21 25 -59 -50 -133 -38 -37 -70 -72 -70 -78 0 -5 31 -9 69 -9 63 0 69
2 75 23 9 33 7 44 -5 25 -7 -13 -23 -18 -60 -18 l-50 0 71 68 c67 65 80 90 62
120 -14 21 -74 25 -99 7z"/>
<path d="M4675 658 c-27 -26 -38 -46 -47 -90 -11 -53 -10 -60 8 -85 28 -38 67
-41 99 -9 29 29 34 86 9 110 -18 19 -38 20 -65 6 -24 -13 -25 -1 -3 41 22 44
84 61 84 23 0 -8 5 -14 10 -14 16 0 11 37 -6 44 -32 12 -55 5 -89 -26z m57
-97 c5 -61 -13 -93 -51 -89 -23 3 -26 8 -29 49 -3 44 -1 48 25 57 34 11 52 6
55 -17z"/>
<path d="M2367 664 c-4 -12 -17 -26 -30 -32 -18 -9 -19 -11 -4 -11 13 -1 17
-6 13 -18 -16 -51 -23 -119 -15 -135 11 -20 36 -23 59 -8 12 8 9 10 -12 10
-32 0 -34 8 -17 93 9 44 16 57 30 57 10 0 21 5 24 10 3 6 -3 10 -14 10 -13 0
-21 8 -23 23 -4 22 -4 22 -11 1z"/>
<path d="M1390 625 c9 -11 10 -29 0 -81 -9 -56 -9 -69 3 -82 11 -11 19 -12 33
-3 18 10 18 10 0 11 -17 0 -18 5 -12 53 3 28 9 67 12 85 6 30 4 32 -21 32 -23
0 -26 -2 -15 -15z"/>
<path d="M1492 621 c9 -14 8 -36 -4 -95 -11 -57 -12 -76 -3 -76 6 0 18 26 25
58 7 31 15 62 18 67 4 6 7 22 7 38 0 23 -4 27 -28 27 -24 0 -26 -2 -15 -19z"/>
<path d="M1564 625 c-18 -15 -18 -15 9 -9 25 6 27 4 27 -22 -1 -16 -5 -48 -9
-71 -10 -52 5 -81 35 -68 17 7 18 8 2 12 -21 5 -22 23 -7 93 15 71 -10 101
-57 65z"/>
<path d="M1728 625 c-35 -20 -63 -91 -49 -127 17 -45 61 -60 97 -33 18 14 17
14 -13 9 -37 -7 -63 8 -63 37 0 13 7 19 23 19 36 0 87 37 87 63 0 45 -33 58
-82 32z m50 -7 c20 -26 -23 -78 -64 -78 -12 0 -1 41 17 64 23 29 32 32 47 14z"/>
<path d="M1943 627 c17 -11 16 -18 -2 -109 -11 -53 -23 -108 -27 -122 -6 -24
-4 -26 27 -26 29 0 31 2 16 13 -13 9 -16 20 -11 44 6 29 9 31 35 26 63 -12
132 106 94 163 -18 28 -34 30 -61 8 -18 -15 -18 -15 5 -8 44 12 54 -41 21
-105 -20 -41 -40 -54 -66 -44 -13 5 -15 14 -10 47 4 23 14 52 23 65 9 14 10
20 3 16 -10 -6 -12 -1 -8 19 5 23 2 26 -25 26 -27 0 -29 -1 -14 -13z"/>
<path d="M2180 627 c-61 -30 -77 -145 -24 -169 77 -35 165 101 104 162 -23 23
-45 25 -80 7z m68 -54 c4 -59 -20 -103 -57 -103 -46 0 -56 60 -21 118 16 27
26 33 48 30 24 -3 27 -8 30 -45z"/>
<path d="M2459 626 c8 -10 9 -26 2 -57 -22 -94 -8 -136 36 -110 16 9 16 10 -4
11 -30 0 -30 7 2 148 5 18 1 22 -21 22 -21 0 -24 -3 -15 -14z"/>
<path d="M2579 612 c-42 -38 -52 -109 -19 -142 60 -60 171 53 129 132 -25 47
-65 51 -110 10z m87 -18 c8 -30 -10 -97 -30 -114 -8 -6 -25 -10 -38 -8 -19 2
-23 10 -26 45 -4 60 20 103 58 103 24 0 31 -5 36 -26z"/>
<path d="M2751 622 c8 -13 7 -37 -3 -95 -11 -59 -12 -77 -3 -77 7 0 18 26 24
59 13 66 42 111 72 111 22 0 24 -17 8 -91 -9 -43 -9 -54 4 -66 11 -12 19 -13
33 -4 18 10 18 10 0 11 -17 0 -18 5 -11 53 12 85 11 99 -7 110 -13 9 -24 7
-48 -11 -29 -22 -30 -22 -30 -2 0 15 -7 20 -25 20 -22 0 -24 -3 -14 -18z"/>
<path d="M2972 624 c-34 -24 -29 -61 13 -85 49 -29 46 -79 -5 -79 -5 0 -18 10
-30 22 -16 18 -20 19 -20 5 0 -41 89 -45 111 -6 15 29 3 55 -37 78 -38 23 -42
46 -11 65 15 9 22 7 37 -12 13 -15 21 -19 26 -11 8 14 -22 39 -46 39 -8 0 -26
-7 -38 -16z"/>
<path d="M3210 622 c-30 -25 -21 -60 22 -87 43 -26 47 -51 13 -67 -24 -11 -29
-10 -46 11 -20 25 -36 23 -26 -3 9 -23 57 -31 86 -15 39 22 36 67 -6 94 -40
25 -47 40 -27 60 21 20 29 19 54 -7 20 -22 20 -22 20 -1 0 36 -53 45 -90 15z"/>
<path d="M3350 625 c9 -11 10 -29 0 -81 -9 -56 -9 -69 3 -82 11 -11 19 -12 33
-3 18 10 18 10 0 11 -17 0 -18 5 -12 53 3 28 9 67 12 85 6 30 4 32 -21 32 -23
0 -26 -2 -15 -15z"/>
<path d="M3452 621 c9 -14 8 -36 -4 -95 -11 -57 -12 -76 -3 -76 6 0 18 26 25
58 7 31 15 62 18 67 4 6 7 22 7 38 0 23 -4 27 -28 27 -24 0 -26 -2 -15 -19z"/>
<path d="M3524 625 c-18 -15 -18 -15 9 -9 25 6 27 4 27 -22 -1 -16 -5 -48 -9
-71 -10 -52 5 -81 35 -68 17 7 18 8 2 12 -21 5 -22 23 -7 93 15 71 -10 101
-57 65z"/>
<path d="M3674 606 c-29 -29 -34 -41 -34 -79 0 -36 5 -49 22 -61 28 -20 49
-20 74 -1 17 13 16 14 -18 8 -33 -5 -39 -3 -47 20 -12 32 3 91 30 118 26 26
36 24 53 -8 12 -24 15 -26 21 -10 4 9 2 24 -5 32 -21 25 -59 18 -96 -19z"/>
<path d="M3852 624 c-51 -35 -68 -118 -32 -154 25 -25 51 -25 81 0 l24 19 -31
-11 c-40 -15 -64 -5 -64 25 0 20 7 26 32 31 37 7 78 42 78 66 0 39 -48 52 -88
24z m53 -5 c13 -21 -5 -57 -35 -69 -38 -16 -44 -11 -30 26 16 43 51 66 65 43z"/>
</g>
</svg>
